<svg id="visual" viewBox="0 0 700 120" width="700" height="120" xmlns="http://www.w3.org/2000/svg" xmlns:xlink="http://www.w3.org/1999/xlink" version="1.1"><path d="M0 82L5.8 81C11.7 80 23.3 78 35 72.2C46.7 66.3 58.3 56.7 70 48.8C81.7 41 93.3 35 105 39.7C116.7 44.3 128.3 59.7 140 66.8C151.7 74 163.3 73 175 71.5C186.7 70 198.3 68 210 66C221.7 64 233.3 62 245 57.3C256.7 52.7 268.3 45.3 280 47.7C291.7 50 303.3 62 315 62.5C326.7 63 338.3 52 350 49.2C361.7 46.3 373.3 51.7 385 57.8C396.7 64 408.3 71 420 73.8C431.7 76.7 443.3 75.3 455 75.3C466.7 75.3 478.3 76.7 490 70.3C501.7 64 513.3 50 525 42.2C536.7 34.3 548.3 32.7 560 40.7C571.7 48.7 583.3 66.3 595 73.7C606.7 81 618.3 78 630 78.7C641.7 79.3 653.3 83.7 665 81.2C676.7 78.7 688.3 69.3 694.2 64.7L700 60L700 121L694.2 121C688.3 121 676.7 121 665 121C653.3 121 641.7 121 630 121C618.3 121 606.7 121 595 121C583.3 121 571.7 121 560 121C548.3 121 536.7 121 525 121C513.3 121 501.7 121 490 121C478.3 121 466.7 121 455 121C443.3 121 431.7 121 420 121C408.3 121 396.7 121 385 121C373.3 121 361.7 121 350 121C338.3 121 326.7 121 315 121C303.3 121 291.7 121 280 121C268.3 121 256.7 121 245 121C233.3 121 221.7 121 210 121C198.3 121 186.7 121 175 121C163.3 121 151.7 121 140 121C128.3 121 116.7 121 105 121C93.3 121 81.7 121 70 121C58.3 121 46.7 121 35 121C23.3 121 11.7 121 5.8 121L0 121Z" fill="#000" stroke-linecap="round" stroke-linejoin="miter"></path></svg>