<svg id="visual" viewBox="0 0 900 600" width="900" height="600" xmlns="http://www.w3.org/2000/svg" xmlns:xlink="http://www.w3.org/1999/xlink" version="1.1"><path d="M0 127L39 127L39 103L78 103L78 121L117 121L117 67L157 67L157 103L196 103L196 163L235 163L235 103L274 103L274 121L313 121L313 91L352 91L352 121L391 121L391 97L430 97L430 85L470 85L470 169L509 169L509 187L548 187L548 133L587 133L587 127L626 127L626 169L665 169L665 85L704 85L704 175L743 175L743 169L783 169L783 73L822 73L822 127L861 127L861 121L900 121L900 73L900 0L900 0L861 0L861 0L822 0L822 0L783 0L783 0L743 0L743 0L704 0L704 0L665 0L665 0L626 0L626 0L587 0L587 0L548 0L548 0L509 0L509 0L470 0L470 0L430 0L430 0L391 0L391 0L352 0L352 0L313 0L313 0L274 0L274 0L235 0L235 0L196 0L196 0L157 0L157 0L117 0L117 0L78 0L78 0L39 0L39 0L0 0Z" fill="#b273ff"></path><path d="M0 181L39 181L39 139L78 139L78 139L117 139L117 97L157 97L157 139L196 139L196 205L235 205L235 133L274 133L274 139L313 139L313 127L352 127L352 157L391 157L391 121L430 121L430 103L470 103L470 193L509 193L509 217L548 217L548 157L587 157L587 157L626 157L626 211L665 211L665 115L704 115L704 211L743 211L743 223L783 223L783 91L822 91L822 145L861 145L861 169L900 169L900 103L900 71L900 119L861 119L861 125L822 125L822 71L783 71L783 167L743 167L743 173L704 173L704 83L665 83L665 167L626 167L626 125L587 125L587 131L548 131L548 185L509 185L509 167L470 167L470 83L430 83L430 95L391 95L391 119L352 119L352 89L313 89L313 119L274 119L274 101L235 101L235 161L196 161L196 101L157 101L157 65L117 65L117 119L78 119L78 101L39 101L39 125L0 125Z" fill="#ab67ff"></path><path d="M0 211L39 211L39 169L78 169L78 151L117 151L117 121L157 121L157 151L196 151L196 223L235 223L235 157L274 157L274 169L313 169L313 145L352 145L352 181L391 181L391 151L430 151L430 133L470 133L470 205L509 205L509 229L548 229L548 175L587 175L587 181L626 181L626 229L665 229L665 133L704 133L704 223L743 223L743 235L783 235L783 109L822 109L822 175L861 175L861 181L900 181L900 127L900 101L900 167L861 167L861 143L822 143L822 89L783 89L783 221L743 221L743 209L704 209L704 113L665 113L665 209L626 209L626 155L587 155L587 155L548 155L548 215L509 215L509 191L470 191L470 101L430 101L430 119L391 119L391 155L352 155L352 125L313 125L313 137L274 137L274 131L235 131L235 203L196 203L196 137L157 137L157 95L117 95L117 137L78 137L78 137L39 137L39 179L0 179Z" fill="#a35bff"></path><path d="M0 223L39 223L39 187L78 187L78 175L117 175L117 139L157 139L157 169L196 169L196 247L235 247L235 193L274 193L274 187L313 187L313 181L352 181L352 211L391 211L391 181L430 181L430 145L470 145L470 241L509 241L509 247L548 247L548 205L587 205L587 193L626 193L626 259L665 259L665 169L704 169L704 259L743 259L743 247L783 247L783 133L822 133L822 211L861 211L861 211L900 211L900 145L900 125L900 179L861 179L861 173L822 173L822 107L783 107L783 233L743 233L743 221L704 221L704 131L665 131L665 227L626 227L626 179L587 179L587 173L548 173L548 227L509 227L509 203L470 203L470 131L430 131L430 149L391 149L391 179L352 179L352 143L313 143L313 167L274 167L274 155L235 155L235 221L196 221L196 149L157 149L157 119L117 119L117 149L78 149L78 167L39 167L39 209L0 209Z" fill="#9b4eff"></path><path d="M0 253L39 253L39 199L78 199L78 217L117 217L117 169L157 169L157 205L196 205L196 259L235 259L235 217L274 217L274 205L313 205L313 205L352 205L352 229L391 229L391 217L430 217L430 187L470 187L470 265L509 265L509 283L548 283L548 229L587 229L587 223L626 223L626 277L665 277L665 211L704 211L704 289L743 289L743 289L783 289L783 157L822 157L822 235L861 235L861 253L900 253L900 187L900 143L900 209L861 209L861 209L822 209L822 131L783 131L783 245L743 245L743 257L704 257L704 167L665 167L665 257L626 257L626 191L587 191L587 203L548 203L548 245L509 245L509 239L470 239L470 143L430 143L430 179L391 179L391 209L352 209L352 179L313 179L313 185L274 185L274 191L235 191L235 245L196 245L196 167L157 167L157 137L117 137L117 173L78 173L78 185L39 185L39 221L0 221Z" fill="#9340ff"></path><path d="M0 271L39 271L39 259L78 259L78 259L117 259L117 193L157 193L157 247L196 247L196 283L235 283L235 235L274 235L274 247L313 247L313 235L352 235L352 277L391 277L391 265L430 265L430 235L470 235L470 283L509 283L509 313L548 313L548 247L587 247L587 253L626 253L626 337L665 337L665 229L704 229L704 313L743 313L743 337L783 337L783 181L822 181L822 277L861 277L861 283L900 283L900 247L900 185L900 251L861 251L861 233L822 233L822 155L783 155L783 287L743 287L743 287L704 287L704 209L665 209L665 275L626 275L626 221L587 221L587 227L548 227L548 281L509 281L509 263L470 263L470 185L430 185L430 215L391 215L391 227L352 227L352 203L313 203L313 203L274 203L274 215L235 215L235 257L196 257L196 203L157 203L157 167L117 167L117 215L78 215L78 197L39 197L39 251L0 251Z" fill="#8a30fe"></path><path d="M0 385L39 385L39 385L78 385L78 361L117 361L117 319L157 319L157 427L196 427L196 373L235 373L235 409L274 409L274 409L313 409L313 409L352 409L352 385L391 385L391 343L430 343L430 391L470 391L470 367L509 367L509 415L548 415L548 349L587 349L587 319L626 319L626 433L665 433L665 403L704 403L704 421L743 421L743 445L783 445L783 397L822 397L822 379L861 379L861 445L900 445L900 391L900 245L900 281L861 281L861 275L822 275L822 179L783 179L783 335L743 335L743 311L704 311L704 227L665 227L665 335L626 335L626 251L587 251L587 245L548 245L548 311L509 311L509 281L470 281L470 233L430 233L430 263L391 263L391 275L352 275L352 233L313 233L313 245L274 245L274 233L235 233L235 281L196 281L196 245L157 245L157 191L117 191L117 257L78 257L78 257L39 257L39 269L0 269Z" fill="#8225f8"></path><path d="M0 409L39 409L39 415L78 415L78 421L117 421L117 355L157 355L157 457L196 457L196 433L235 433L235 439L274 439L274 439L313 439L313 475L352 475L352 415L391 415L391 391L430 391L430 457L470 457L470 397L509 397L509 469L548 469L548 385L587 385L587 373L626 373L626 457L665 457L665 469L704 469L704 451L743 451L743 481L783 481L783 427L822 427L822 439L861 439L861 469L900 469L900 439L900 389L900 443L861 443L861 377L822 377L822 395L783 395L783 443L743 443L743 419L704 419L704 401L665 401L665 431L626 431L626 317L587 317L587 347L548 347L548 413L509 413L509 365L470 365L470 389L430 389L430 341L391 341L391 383L352 383L352 407L313 407L313 407L274 407L274 407L235 407L235 371L196 371L196 425L157 425L157 317L117 317L117 359L78 359L78 383L39 383L39 383L0 383Z" fill="#7b22ec"></path><path d="M0 427L39 427L39 451L78 451L78 451L117 451L117 379L157 379L157 469L196 469L196 469L235 469L235 463L274 463L274 475L313 475L313 505L352 505L352 451L391 451L391 403L430 403L430 475L470 475L470 409L509 409L509 481L548 481L548 415L587 415L587 409L626 409L626 481L665 481L665 493L704 493L704 475L743 475L743 505L783 505L783 451L822 451L822 475L861 475L861 481L900 481L900 457L900 437L900 467L861 467L861 437L822 437L822 425L783 425L783 479L743 479L743 449L704 449L704 467L665 467L665 455L626 455L626 371L587 371L587 383L548 383L548 467L509 467L509 395L470 395L470 455L430 455L430 389L391 389L391 413L352 413L352 473L313 473L313 437L274 437L274 437L235 437L235 431L196 431L196 455L157 455L157 353L117 353L117 419L78 419L78 413L39 413L39 407L0 407Z" fill="#741fe0"></path><path d="M0 511L39 511L39 535L78 535L78 493L117 493L117 481L157 481L157 535L196 535L196 505L235 505L235 547L274 547L274 517L313 517L313 559L352 559L352 541L391 541L391 487L430 487L430 547L470 547L470 493L509 493L509 529L548 529L548 529L587 529L587 505L626 505L626 517L665 517L665 535L704 535L704 535L743 535L743 541L783 541L783 493L822 493L822 529L861 529L861 517L900 517L900 553L900 455L900 479L861 479L861 473L822 473L822 449L783 449L783 503L743 503L743 473L704 473L704 491L665 491L665 479L626 479L626 407L587 407L587 413L548 413L548 479L509 479L509 407L470 407L470 473L430 473L430 401L391 401L391 449L352 449L352 503L313 503L313 473L274 473L274 461L235 461L235 467L196 467L196 467L157 467L157 377L117 377L117 449L78 449L78 449L39 449L39 425L0 425Z" fill="#6e1cd4"></path><path d="M0 583L39 583L39 583L78 583L78 559L117 559L117 571L157 571L157 583L196 583L196 559L235 559L235 589L274 589L274 565L313 565L313 583L352 583L352 583L391 583L391 559L430 559L430 577L470 577L470 583L509 583L509 559L548 559L548 565L587 565L587 583L626 583L626 577L665 577L665 583L704 583L704 589L743 589L743 571L783 571L783 559L822 559L822 589L861 589L861 583L900 583L900 577L900 551L900 515L861 515L861 527L822 527L822 491L783 491L783 539L743 539L743 533L704 533L704 533L665 533L665 515L626 515L626 503L587 503L587 527L548 527L548 527L509 527L509 491L470 491L470 545L430 545L430 485L391 485L391 539L352 539L352 557L313 557L313 515L274 515L274 545L235 545L235 503L196 503L196 533L157 533L157 479L117 479L117 491L78 491L78 533L39 533L39 509L0 509Z" fill="#6719c9"></path><path d="M0 601L39 601L39 601L78 601L78 601L117 601L117 601L157 601L157 601L196 601L196 601L235 601L235 601L274 601L274 601L313 601L313 601L352 601L352 601L391 601L391 601L430 601L430 601L470 601L470 601L509 601L509 601L548 601L548 601L587 601L587 601L626 601L626 601L665 601L665 601L704 601L704 601L743 601L743 601L783 601L783 601L822 601L822 601L861 601L861 601L900 601L900 601L900 575L900 581L861 581L861 587L822 587L822 557L783 557L783 569L743 569L743 587L704 587L704 581L665 581L665 575L626 575L626 581L587 581L587 563L548 563L548 557L509 557L509 581L470 581L470 575L430 575L430 557L391 557L391 581L352 581L352 581L313 581L313 563L274 563L274 587L235 587L235 557L196 557L196 581L157 581L157 569L117 569L117 557L78 557L78 581L39 581L39 581L0 581Z" fill="#6116bd"></path></svg>