<svg id="visual" viewBox="0 0 1500 200" width="1500" height="200" xmlns="http://www.w3.org/2000/svg" xmlns:xlink="http://www.w3.org/1999/xlink" version="1.1"><path d="M0 62L12.5 58.3C25 54.7 50 47.3 75 47C100 46.7 125 53.3 150 67.2C175 81 200 102 225 106.7C250 111.3 275 99.7 300 92.8C325 86 350 84 375 88.7C400 93.3 425 104.7 450 111.8C475 119 500 122 525 115.8C550 109.7 575 94.3 600 98.3C625 102.3 650 125.7 675 129C700 132.3 725 115.7 750 100.5C775 85.3 800 71.7 825 78.2C850 84.7 875 111.3 900 114.8C925 118.3 950 98.7 975 93.2C1000 87.7 1025 96.3 1050 98.2C1075 100 1100 95 1125 94.7C1150 94.3 1175 98.7 1200 94.8C1225 91 1250 79 1275 80.7C1300 82.3 1325 97.7 1350 105.8C1375 114 1400 115 1425 105.3C1450 95.7 1475 75.3 1487.5 65.2L1500 55L1500 201L1487.5 201C1475 201 1450 201 1425 201C1400 201 1375 201 1350 201C1325 201 1300 201 1275 201C1250 201 1225 201 1200 201C1175 201 1150 201 1125 201C1100 201 1075 201 1050 201C1025 201 1000 201 975 201C950 201 925 201 900 201C875 201 850 201 825 201C800 201 775 201 750 201C725 201 700 201 675 201C650 201 625 201 600 201C575 201 550 201 525 201C500 201 475 201 450 201C425 201 400 201 375 201C350 201 325 201 300 201C275 201 250 201 225 201C200 201 175 201 150 201C125 201 100 201 75 201C50 201 25 201 12.5 201L0 201Z" fill="#000000" stroke-linecap="round" stroke-linejoin="miter"></path></svg>