<svg id="visual" viewBox="0 0 1920 200" width="1920" height="200" xmlns="http://www.w3.org/2000/svg" xmlns:xlink="http://www.w3.org/1999/xlink" version="1.1"><path d="M0 139L22.8 130.3C45.7 121.7 91.3 104.3 137 110.3C182.7 116.3 228.3 145.7 274 148.5C319.7 151.3 365.3 127.7 411.2 116.3C457 105 503 106 548.8 105.5C594.7 105 640.3 103 686 105.2C731.7 107.3 777.3 113.7 823 121.8C868.7 130 914.3 140 960 136.5C1005.7 133 1051.3 116 1097 111.2C1142.7 106.3 1188.3 113.7 1234 121.3C1279.7 129 1325.3 137 1371.2 148.3C1417 159.7 1463 174.3 1508.8 172.2C1554.7 170 1600.3 151 1646 137.5C1691.7 124 1737.3 116 1783 113.7C1828.7 111.3 1874.3 114.7 1897.2 116.3L1920 118L1920 201L1897.2 201C1874.3 201 1828.7 201 1783 201C1737.3 201 1691.7 201 1646 201C1600.3 201 1554.7 201 1508.8 201C1463 201 1417 201 1371.2 201C1325.3 201 1279.7 201 1234 201C1188.3 201 1142.7 201 1097 201C1051.3 201 1005.7 201 960 201C914.3 201 868.7 201 823 201C777.3 201 731.7 201 686 201C640.3 201 594.7 201 548.8 201C503 201 457 201 411.2 201C365.3 201 319.7 201 274 201C228.3 201 182.7 201 137 201C91.3 201 45.7 201 22.8 201L0 201Z" fill="#000" stroke-linecap="round" stroke-linejoin="miter"></path></svg>